<svg xmlns="http://www.w3.org/2000/svg" viewBox="0 0 123 64"><style>.st0{fill:#6a2875}.st1{fill:#fff}.st2{fill:#8ac53f}</style><title>NDIS</title><path d="M8.8 0S.3 0 .3 8.5v46.2S.3 64 9.6 64h104.7s8.5 0 8.5-8.5V29.3S122.8 0 93.5 0H8.8z" class="st0"/><path d="M13.8 22.7c3 0 3.6 0 3.8.8.3.5.4 1.5.5 2.5 2-2.3 5.3-4 9-4 4 0 7 1.3 8.7 3.5 2 2.3 3 5.3 3 10v19c0 .8-.5 1-4 1h-.4c-4 0-4.2-.2-4.2-1V38c0-4.3 0-5.6-1-6.7-1-.8-2.5-1.3-4.3-1.3-1.4 0-3 .3-4.2 1-1.3.8-1.6 1.8-1.7 3.3v20.6c0 .7-.5 1-4 1h-.4c-4 0-4.2-.3-4.2-1V37.4c0-4.8-.2-10.2-.4-13.6 0-1 .2-1 3.7-1h.3zm48.9 9.5c-1.6-2-3.4-3-5.6-3-4.4 0-6.6 3.7-6.6 10.3 0 3.7 1 6 2 7.4 1.2 1.2 3 1.7 4.8 1.7C59 48.7 61 48 62 47c.6-.6.8-1.6.8-3.3V32.2zm4.5-24c3.7 0 4 .3 4 1v38c0 1.3.6 1.6 1.8 1.6.7 0 .8.3.8 2.5v.7c0 2.2 0 2.7-.6 3-1 .3-2.8.6-4.5.6-2.7 0-4.6-1.2-5.4-3-2 2-5.2 3.4-8.6 3.4-8 0-13-6.3-13-16.5C41.6 28.5 47 22 55 22c3 0 5.3 1 7.4 2.8V9.2c0-.7 0-1 4.2-1h.4zm22.1 40.2c1-2 1.6-2.4 2.3-2 2.4 1.7 5.3 2.8 8 2.8 3.2 0 5-1.2 5-3 0-4.7-15.8-1.8-15.8-13.6 0-6.5 5.6-10.5 12.8-10.5 4 0 7.6 1.2 10.2 3.2.6.4.5 1-.7 3l-.5 1c-1 1.8-1.6 2-2.2 1.7-2-1.3-4-2-6.3-2-1.8 0-3.2.3-4 1-.6.5-1 1-1 1.8 0 4.7 16 2.2 16 13.4 0 3-1.2 5.6-3.2 7.5C107.5 55 104 56 99.6 56c-4.8 0-9-1.5-11.5-3.6-.4-.4-.3-1 .7-2.8l.6-1.2zm-7.7-25.7c3.7 0 4 .2 4 1v30.8c0 .7-.4 1-4 1h-.3c-4 0-4.2-.3-4.2-1v-31c0-.6.2-.8 4.3-.8h.3z" class="st1"/><path d="M81.3 19.2c3 0 5.5-2.4 5.5-5.5 0-3-2.4-5.5-5.5-5.5-3 0-5.5 2.4-5.5 5.5 0 3 2.5 5.5 5.5 5.5" class="st2"/></svg>